<svg preserveAspectRatio="none" width="100%" height="100%" overflow="visible" style="display: block;" viewBox="0 0 40 40.0009" fill="none" xmlns="http://www.w3.org/2000/svg">
<g id="Group">
<path id="Vector" d="M34.4833 24.9009C33.5167 25.5009 32.6 25.9675 31.7833 26.3009C31.2167 26.5509 30.6 26.6675 30 26.6675C29.4 26.6675 28.7833 26.5509 28.2167 26.3009C26.7667 25.7009 25 24.7009 23.2833 23.3342H7.36667L9.83333 17.6675C10.1 17.0675 10.7 16.6675 11.35 16.6675H17.9167C17.45 15.6342 17.0833 14.5175 16.8833 13.3342H11.35C9.36667 13.3342 7.56667 14.5175 6.76667 16.3342L3.46667 23.9175C3.45 23.9509 3.46667 23.9842 3.45 24.0342C1.41667 25.0675 1.78814e-07 27.1509 1.78814e-07 29.5842V35.8342C1.78814e-07 36.9393 0.438987 37.9991 1.22039 38.7805C2.00179 39.5619 3.0616 40.0009 4.16667 40.0009C5.27174 40.0009 6.33154 39.5619 7.11294 38.7805C7.89435 37.9991 8.33333 36.9393 8.33333 35.8342V35.0009H28.3333V35.8342C28.3333 36.9393 28.7723 37.9991 29.5537 38.7805C30.3351 39.5619 31.3949 40.0009 32.5 40.0009C33.6051 40.0009 34.6649 39.5619 35.4463 38.7805C36.2277 37.9991 36.6667 36.9393 36.6667 35.8342V29.5842C36.6667 27.7009 35.8167 26.0175 34.4833 24.9009ZM10 31.6675H6.66667C5.75 31.6675 5 30.9175 5 30.0009C5 29.0842 5.75 28.3342 6.66667 28.3342H10C10.9167 28.3342 11.6667 29.0842 11.6667 30.0009C11.6667 30.9175 10.9167 31.6675 10 31.6675ZM30 31.6675H26.6667C25.75 31.6675 25 30.9175 25 30.0009C25 29.0842 25.75 28.3342 26.6667 28.3342H30C30.9167 28.3342 31.6667 29.0842 31.6667 30.0009C31.6667 30.9175 30.9167 31.6675 30 31.6675Z" fill="var(--fill-0, #1F2937)"/>
<path id="Vector_2" d="M39.1517 3.04421L30.4017 0.0675438C30.1415 -0.0224949 29.8585 -0.0224949 29.5983 0.0675438L20.8483 3.04421C20.6009 3.12791 20.386 3.2871 20.2338 3.49939C20.0816 3.71167 19.9998 3.96634 20 4.22754V10.9242C20 19.0975 29.1233 23.0709 29.5117 23.2359C29.6662 23.3011 29.8323 23.3346 30 23.3346C30.1677 23.3346 30.3338 23.3011 30.4883 23.2359C30.8767 23.0709 40 19.0975 40 10.9242V4.22754C40.0002 3.96634 39.9184 3.71167 39.7662 3.49939C39.614 3.2871 39.3991 3.12791 39.1517 3.04421ZM35.4767 9.36421L30.8933 15.1975C30.7545 15.3741 30.5814 15.5209 30.3844 15.6289C30.1874 15.7369 29.9707 15.8039 29.7471 15.826C29.5236 15.8481 29.2978 15.8248 29.0835 15.7575C28.8692 15.6902 28.6707 15.5802 28.5 15.4342L25.5833 12.9342C25.4102 12.794 25.267 12.6205 25.1621 12.424C25.0572 12.2275 24.9928 12.0119 24.9726 11.7901C24.9524 11.5682 24.9769 11.3446 25.0447 11.1324C25.1124 10.9202 25.222 10.7237 25.3669 10.5546C25.5119 10.3854 25.6893 10.2471 25.8886 10.1476C26.088 10.0482 26.3052 9.98979 26.5275 9.97577C26.7499 9.96176 26.9727 9.99245 27.183 10.066C27.3932 10.1396 27.5866 10.2546 27.7517 10.4042L29.3483 11.7725L32.8567 7.30754C32.9917 7.13551 33.1593 6.99176 33.3499 6.88451C33.5405 6.77725 33.7504 6.70858 33.9675 6.68243C34.1846 6.65627 34.4048 6.67314 34.6154 6.73207C34.826 6.791 35.023 6.89083 35.195 7.02588C35.367 7.16092 35.5108 7.32852 35.618 7.51912C35.7253 7.70972 35.794 7.91957 35.8201 8.13671C35.8463 8.35384 35.8294 8.574 35.7705 8.78462C35.7115 8.99523 35.6117 9.19218 35.4767 9.36421Z" fill="var(--fill-0, #1F2937)"/>
</g>
</svg>
