<svg preserveAspectRatio="none" width="100%" height="100%" overflow="visible" style="display: block;" viewBox="0 0 20 20" fill="none" xmlns="http://www.w3.org/2000/svg">
<path id="icon-request" d="M0 17.7979V2.20211C0 0.985713 0.985713 0 2.20211 0H10.1591C10.3212 0 10.4762 0.0644297 10.5908 0.179033L15.365 4.95325L15.4257 5.02188C15.4294 5.02691 15.4321 5.03267 15.4356 5.0378C15.4392 5.04294 15.4422 5.04845 15.4456 5.05371C15.4619 5.07897 15.476 5.10519 15.4884 5.13229C15.4922 5.14081 15.4958 5.14942 15.4993 5.15815C15.5275 5.22854 15.5423 5.30312 15.5431 5.37895C15.5431 5.38093 15.5441 5.38294 15.5441 5.38492V6.7217C15.5441 7.0592 15.2709 7.3324 14.9334 7.3324C14.5959 7.3324 14.3227 7.0592 14.3227 6.7217V5.99562H11.7505C10.5342 5.99562 9.54844 5.00991 9.54844 3.79351V1.2214H2.20211C1.66072 1.2214 1.2214 1.66072 1.2214 2.20211V17.7979C1.2214 18.3393 1.66072 18.7786 2.20211 18.7786H5.77183C6.10933 18.7786 6.38353 19.0518 6.38353 19.3893C6.38353 19.7268 6.10933 20 5.77183 20H2.20211C0.985713 20 0 19.0143 0 17.7979ZM16.8023 8.50706C17.0395 8.3503 17.3622 8.37676 17.5711 8.58564L19.821 10.8355C19.9356 10.9501 20 11.1061 20 11.2682C19.9999 11.4301 19.9355 11.5853 19.821 11.6998L12.9441 18.5777C12.4145 19.1072 11.7399 19.4682 11.0056 19.6151L9.13666 19.9881C8.93642 20.028 8.73003 19.9653 8.58564 19.821C8.44129 19.6766 8.3777 19.4701 8.41755 19.2699L8.79153 17.401C8.93842 16.6667 9.29939 15.9921 9.82892 15.4625L16.7068 8.58564L16.8023 8.50706ZM10.6933 16.3268C10.3343 16.6858 10.0896 17.143 9.99005 17.6407L9.79511 18.6105L10.7659 18.4166C11.2636 18.317 11.7208 18.0723 12.0798 17.7133L18.525 11.2672L17.1385 9.88064L10.6933 16.3268ZM7.21404 14.0044C7.55147 14.0045 7.82475 14.2776 7.82475 14.6151C7.82475 14.9525 7.55147 15.2257 7.21404 15.2258H3.79351C3.45601 15.2258 3.18281 14.9526 3.18281 14.6151C3.18281 14.2776 3.45601 14.0044 3.79351 14.0044H7.21404ZM10.2228 10.8216C10.5603 10.8216 10.8335 11.0948 10.8335 11.4323C10.8335 11.7698 10.5603 12.043 10.2228 12.043H3.79351C3.45601 12.043 3.18281 11.7698 3.18281 11.4323C3.18281 11.0948 3.45601 10.8216 3.79351 10.8216H10.2228ZM11.7505 7.63875C12.088 7.63875 12.3612 7.91195 12.3612 8.24945C12.3612 8.58695 12.088 8.86016 11.7505 8.86016H3.79351C3.45601 8.86016 3.18281 8.58695 3.18281 8.24945C3.18281 7.91195 3.45601 7.63875 3.79351 7.63875H11.7505ZM10.7698 3.79351C10.7698 4.33491 11.2092 4.77422 11.7505 4.77422H13.4593L10.7698 2.08474V3.79351Z" fill="var(--fill-0, white)"/>
</svg>
