<svg preserveAspectRatio="none" width="100%" height="100%" overflow="visible" style="display: block;" viewBox="0 0 23.0379 30.3355" fill="none" xmlns="http://www.w3.org/2000/svg">
<g id="Group">
<path id="Vector" d="M1.64554 0H15.627L23.0377 7.38199V28.6899C23.0377 29.5991 22.3006 30.3355 21.3922 30.3355H1.64554C0.737169 30.3355 0 29.5991 0 28.6899V1.64554C0 0.736402 0.737254 0 1.64554 0Z" fill="var(--fill-0, #E2574C)"/>
<path id="Vector_2" d="M23.0144 7.40501H17.2788C16.3704 7.40501 15.6332 6.66784 15.6332 5.75947V0.0164664L23.0144 7.40501Z" fill="var(--fill-0, #B53629)"/>
<path id="Vector_3" d="M19.1367 14.1189C19.5303 14.1189 19.723 13.7744 19.723 13.4405C19.723 13.0948 19.522 12.7609 19.1367 12.7609H16.8954C16.4572 12.7609 16.2129 13.1254 16.2129 13.5278V19.06C16.2129 19.5532 16.4925 19.8269 16.8707 19.8269C17.2467 19.8269 17.5274 19.5532 17.5274 19.06V17.5416H18.8831C19.3036 17.5416 19.5139 17.1959 19.5139 16.8526C19.5139 16.5164 19.3036 16.1824 18.8831 16.1824H17.5274V14.1189C17.5274 14.1189 19.1367 14.1189 19.1367 14.1189ZM11.561 12.7609H9.9211C9.47587 12.7609 9.15985 13.0677 9.15985 13.523V19.0648C9.15985 19.6299 9.61444 19.8069 9.93982 19.8069H11.6608C13.6977 19.8069 15.0428 18.4607 15.0428 16.383C15.0417 14.1861 13.7754 12.7609 11.561 12.7609ZM11.6398 18.4407H10.6401V14.1272H11.5411C12.905 14.1272 13.4981 15.0463 13.4981 16.3146C13.4981 17.5016 12.9154 18.4407 11.6398 18.4407ZM5.63229 12.7609H4.00768C3.54835 12.7609 3.29225 13.0652 3.29225 13.5278V19.06C3.29225 19.5532 3.58591 19.8269 3.98058 19.8269C4.37524 19.8269 4.6689 19.5532 4.6689 19.06V17.4448H5.68735C6.94428 17.4448 7.98156 16.5505 7.98156 15.1122C7.98169 13.7048 6.98086 12.7609 5.63229 12.7609ZM5.60531 16.1471H4.66902V14.0599H5.60531C6.18327 14.0599 6.55095 14.513 6.55095 15.1041C6.54973 15.6941 6.18327 16.1471 5.60531 16.1471Z" fill="var(--fill-0, white)"/>
</g>
</svg>
