<svg preserveAspectRatio="xMidYMid meet" width="20.0002" height="20" viewBox="0 0 20.0002 20" fill="none" xmlns="http://www.w3.org/2000/svg">
<g id="LinkedIn">
<path id="Vector" d="M4.51622 6.57668H0.337075V19.9036H4.51622V6.57668Z" fill="#D1D5DB"/>
<path id="Vector_2" d="M15.8211 6.28794C15.667 6.26868 15.5033 6.25905 15.3396 6.24942C12.9997 6.15313 11.6804 7.53975 11.2182 8.13676C11.093 8.30046 11.0353 8.39675 11.0353 8.39675V6.61534H7.03908V19.9423H11.0353H11.2182C11.2182 18.5845 11.2182 17.2364 11.2182 15.8787C11.2182 15.1469 11.2182 14.4151 11.2182 13.6832C11.2182 12.7781 11.1508 11.8151 11.6034 10.987C11.9886 10.2937 12.6819 9.94707 13.4619 9.94707C15.7729 9.94707 15.8211 12.0366 15.8211 12.2292C15.8211 12.2388 15.8211 12.2485 15.8211 12.2485V20H20.0002V11.3048C20.0002 8.32935 18.4884 6.57682 15.8211 6.28794Z" fill="#D1D5DB"/>
<path id="Vector_3" d="M2.42659 4.85316C3.76677 4.85316 4.8532 3.76674 4.8532 2.42658C4.8532 1.08642 3.76677 0 2.42659 0C1.08642 0 0 1.08642 0 2.42658C0 3.76674 1.08642 4.85316 2.42659 4.85316Z" fill="#D1D5DB"/>
</g>
</svg>
