<svg preserveAspectRatio="none" width="100%" height="100%" overflow="visible" style="display: block;" viewBox="0 0 24 24" fill="none" xmlns="http://www.w3.org/2000/svg">
<path id="insta" fill-rule="evenodd" clip-rule="evenodd" d="M12 0C15.259 0 15.6677 0.0137284 16.9476 0.0722188C18.2249 0.130551 19.0972 0.333374 19.8605 0.629981C20.6496 0.936635 21.3188 1.34696 21.9859 2.01408C22.653 2.6812 23.0634 3.35047 23.37 4.13956C23.6667 4.90288 23.8696 5.77519 23.9278 7.05246C23.9863 8.33236 24 8.74095 24 11.9999C24 15.259 23.9863 15.6676 23.9278 16.9475C23.8696 18.2248 23.6667 19.0971 23.37 19.8604C23.0634 20.6495 22.653 21.3188 21.9859 21.9859C21.3188 22.653 20.6496 23.0634 19.8605 23.37C19.0972 23.6666 18.2249 23.8694 16.9476 23.9278C15.6677 23.9862 15.259 24 12 24C8.74099 24 8.33234 23.9862 7.05244 23.9278C5.77511 23.8694 4.9028 23.6666 4.13958 23.37C3.35043 23.0634 2.68121 22.653 2.01409 21.9859C1.34697 21.3188 0.93664 20.6495 0.630037 19.8604C0.333271 19.0971 0.130447 18.2248 0.0722198 16.9475C0.0137818 15.6676 0 15.259 0 11.9999C0 8.74095 0.0137818 8.33236 0.0722198 7.05246C0.130447 5.77519 0.333271 4.90288 0.630037 4.13956C0.93664 3.35047 1.34697 2.6812 2.01409 2.01408C2.68121 1.34696 3.35043 0.936635 4.13958 0.629981C4.9028 0.333374 5.77511 0.130551 7.05244 0.0722188C8.33234 0.0137284 8.74099 0 12 0ZM12 5.83784C8.59676 5.83784 5.83786 8.59677 5.83786 11.9999C5.83786 15.4033 8.59676 18.1621 12 18.1621C15.4032 18.1621 18.1621 15.4033 18.1621 11.9999C18.1621 8.59677 15.4032 5.83784 12 5.83784ZM12 16C9.79087 16 7.99996 14.2091 7.99996 11.9999C7.99996 9.79083 9.79087 7.99998 12 7.99998C14.2092 7.99998 16 9.79083 16 11.9999C16 14.2091 14.2092 16 12 16ZM19.8457 5.59435C19.8457 4.79905 19.201 4.15434 18.4057 4.15434C17.6104 4.15434 16.9657 4.79905 16.9657 5.59435C16.9657 6.3896 17.6104 7.03436 18.4057 7.03436C19.201 7.03436 19.8457 6.3896 19.8457 5.59435Z" fill="var(--fill-0, #1F2937)"/>
</svg>
