<svg preserveAspectRatio="none" width="100%" height="100%" overflow="visible" style="display: block;" viewBox="0 0 26.6669 26.6668" fill="none" xmlns="http://www.w3.org/2000/svg">
<g id="LinkedIn">
<path id="Vector" d="M6.02162 8.76895H0.449433V26.5382H6.02162V8.76895Z" fill="var(--fill-0, #4B5563)"/>
<path id="Vector_2" d="M21.0947 8.38396C20.8893 8.35828 20.671 8.34544 20.4528 8.3326C17.3329 8.20421 15.5739 10.053 14.9576 10.8491C14.7907 11.0673 14.7137 11.1957 14.7137 11.1957V8.82049H9.38544V26.5897H14.7137H14.9576C14.9576 24.7794 14.9576 22.982 14.9576 21.1716C14.9576 20.1959 14.9576 19.2201 14.9576 18.2443C14.9576 17.0375 14.8678 15.7536 15.4712 14.6494C15.9848 13.725 16.9092 13.2628 17.9491 13.2628C21.0305 13.2628 21.0947 16.0489 21.0947 16.3056C21.0947 16.3185 21.0947 16.3313 21.0947 16.3313V26.6668H26.6669V15.0731C26.6669 11.1058 24.6512 8.76913 21.0947 8.38396Z" fill="var(--fill-0, #4B5563)"/>
<path id="Vector_3" d="M3.23546 6.47092C5.02236 6.47092 6.47093 5.02236 6.47093 3.23548C6.47093 1.4486 5.02236 4.07696e-05 3.23546 4.07696e-05C1.44856 4.07696e-05 0 1.4486 0 3.23548C0 5.02236 1.44856 6.47092 3.23546 6.47092Z" fill="var(--fill-0, #4B5563)"/>
</g>
</svg>
