<svg preserveAspectRatio="none" width="100%" height="100%" overflow="visible" style="display: block;" viewBox="0 0 120 120" fill="none" xmlns="http://www.w3.org/2000/svg">
<g id="Icon Container">
<path id="Star 1" d="M53.5778 6.21171C57.1588 2.74811 62.8412 2.74811 66.4222 6.21172V6.21172C68.9646 8.67078 72.6879 9.4622 76.0107 8.24981V8.24981C80.6909 6.54216 85.882 8.85342 87.7446 13.4741V13.4741C89.067 16.7546 92.1466 18.9921 95.6752 19.236V19.236C100.645 19.5796 104.448 23.8024 104.27 28.7812V28.7812C104.144 32.316 106.047 35.6126 109.171 37.2706V37.2706C113.572 39.606 115.328 45.0104 113.14 49.4864V49.4864C111.587 52.6642 111.985 56.4499 114.165 59.2354V59.2354C117.235 63.1588 116.641 68.8101 112.822 72.0094V72.0094C110.111 74.2808 108.935 77.9011 109.793 81.3324V81.3324C111.002 86.1654 108.161 91.0865 103.371 92.4559V92.4559C99.9701 93.4282 97.4231 96.257 96.8116 99.7408V99.7408C95.9504 104.648 91.3532 107.988 86.4203 107.291V107.291C82.9181 106.795 79.4406 108.344 77.4651 111.278V111.278C74.6825 115.41 69.1242 116.592 64.9014 113.948V113.948C61.9033 112.071 58.0967 112.071 55.0986 113.948V113.948C50.8758 116.592 45.3175 115.41 42.5349 111.278V111.278C40.5594 108.344 37.0819 106.795 33.5797 107.291V107.291C28.6468 107.988 24.0496 104.648 23.1884 99.7408V99.7408C22.5769 96.257 20.0299 93.4282 16.6291 92.4559V92.4559C11.839 91.0865 8.99779 86.1654 10.2069 81.3324V81.3324C11.0653 77.9011 9.88902 74.2808 7.17768 72.0094V72.0094C3.35873 68.8101 2.76475 63.1588 5.83507 59.2354V59.2354C8.01491 56.4499 8.4128 52.6642 6.85973 49.4864V49.4864C4.67223 45.0104 6.4282 39.606 10.8289 37.2706V37.2706C13.9532 35.6126 15.8565 32.316 15.7302 28.7812V28.7812C15.5524 23.8024 19.3547 19.5796 24.3248 19.236V19.236C27.8534 18.9921 30.933 16.7546 32.2554 13.4741V13.4741C34.118 8.85342 39.3091 6.54216 43.9893 8.24981V8.24981C47.3121 9.4622 51.0354 8.67078 53.5778 6.21171V6.21171Z" fill="var(--fill-0, #13CE67)" fill-opacity="0.2"/>
<path id="Vector 5" d="M34.4978 59.2723L50.0595 77.7741C50.415 78.1968 51.0458 78.2512 51.4685 77.8957L89.951 45.5284" stroke="var(--stroke-0, #13CE67)" stroke-width="4"/>
</g>
</svg>
