<svg preserveAspectRatio="none" width="100%" height="100%" overflow="visible" style="display: block;" viewBox="0 0 20 20" fill="none" xmlns="http://www.w3.org/2000/svg">
<g id="document">
<path id="Vector" d="M17.0833 8.49167H14.675C12.7 8.49167 11.0917 6.88333 11.0917 4.90833V2.5C11.0917 2.04167 10.7167 1.66667 10.2583 1.66667H6.725C4.15833 1.66667 2.08333 3.33333 2.08333 6.30833V13.6917C2.08333 16.6667 4.15833 18.3333 6.725 18.3333H13.275C15.8417 18.3333 17.9167 16.6667 17.9167 13.6917V9.325C17.9167 8.86667 17.5417 8.49167 17.0833 8.49167Z" fill="var(--fill-0, #6B7280)"/>
<path id="Vector_2" d="M13.1667 1.84167C12.825 1.5 12.2333 1.73333 12.2333 2.20833V5.11667C12.2333 6.33333 13.2667 7.34167 14.525 7.34167C15.3167 7.35 16.4167 7.35 17.3583 7.35C17.8333 7.35 18.0833 6.79167 17.75 6.45833C16.55 5.25 14.4 3.075 13.1667 1.84167Z" fill="var(--fill-0, #6B7280)"/>
<path id="Vector_3" opacity="0" d="M0 20L20 20L20 0L0 0L0 20Z" fill="var(--fill-0, #6B7280)"/>
</g>
</svg>
