<svg preserveAspectRatio="none" width="100%" height="100%" overflow="visible" style="display: block;" viewBox="0 0 32 23" fill="none" xmlns="http://www.w3.org/2000/svg">
<path id="&#226;&#128;&#156;" d="M15.5989 23L17.7382 13.6757C18.689 9.53153 20.2637 6.36422 22.4624 4.17374C24.7205 1.98327 27.8997 0.59202 32 0L30.9304 4.52896C28.7317 4.94337 27.0381 5.8314 25.8496 7.19305C24.7205 8.49549 23.8292 10.5084 23.1755 13.2317L19.6992 12.61H29.3259L26.9192 23H15.5989ZM0 23L2.13928 13.6757C3.09006 9.53153 4.66481 6.36422 6.86351 4.17374C9.12163 1.98327 12.3008 0.59202 16.4011 0L15.3315 4.52896C13.1328 4.94337 11.4392 5.8314 10.2507 7.19305C9.12163 8.49549 8.23027 10.5084 7.5766 13.2317L4.10028 12.61H13.727L11.3203 23H0Z" fill="var(--fill-0, #E42313)" fill-opacity="0.5"/>
</svg>
