<svg preserveAspectRatio="none" width="100%" height="100%" overflow="visible" style="display: block;" viewBox="0 0 213 31.9999" fill="none" xmlns="http://www.w3.org/2000/svg">
<g id="Group 3">
<path id="Vector" d="M208.039 12.8911C208.217 12.5574 208.311 12.454 208.382 12.454C208.452 12.454 208.523 12.5245 208.448 12.8582L206.643 20.3213H210.637L212.926 10.0713C213.095 9.31936 213.179 7.91416 210.393 7.91416C209.34 7.91416 207.841 8.03636 206.784 9.94442L203.476 15.9036C203.415 16.0258 203.124 16.4629 202.983 16.4629C202.842 16.4629 202.748 16.0258 202.738 15.9036L202.09 9.94442C201.883 8.03636 200.441 7.91416 199.407 7.91416C198.777 7.91416 196.395 7.91416 195.911 10.0713L193.623 20.3213H197.598L199.139 12.8582C199.167 12.736 199.21 12.454 199.369 12.454C199.459 12.454 199.496 12.6655 199.515 12.8911L200.084 18.8127C200.163 19.7056 200.347 20.4576 202.081 20.4576C203.814 20.4576 204.331 19.7056 204.811 18.8127L208.039 12.8911ZM184.168 14.1882C184.394 13.1731 184.563 12.5057 185.146 11.8572C185.851 11.0535 186.555 10.9642 187.57 10.9642C188.604 10.9642 189.234 11.0535 189.596 11.8572C189.915 12.5386 189.769 13.1167 189.53 14.1882C189.309 15.1704 189.159 15.8519 188.552 16.5192C187.829 17.3229 187.162 17.4122 186.128 17.4122C185.127 17.4122 184.446 17.3229 184.103 16.5192C183.839 15.9083 183.957 15.1516 184.168 14.1882ZM188.252 7.91887C186.396 7.91887 184.192 7.97056 182.608 9.17837C181.001 10.405 180.475 12.5433 180.104 14.1882C179.742 15.8002 179.314 17.9573 180.372 19.1981C181.401 20.4059 183.628 20.4576 185.451 20.4576C187.274 20.4576 189.525 20.4059 191.095 19.1981C192.702 17.9526 193.237 15.8002 193.594 14.1882C193.961 12.5433 194.388 10.405 193.327 9.17837C192.283 7.97056 190.108 7.91887 188.252 7.91887ZM165.265 20.3213H169.226L171.068 12.0687C171.134 11.7726 171.171 11.5235 171.467 11.2979C171.683 11.124 171.895 11.1052 172.125 11.1052H174.315C174.681 11.1052 175.123 11.0864 175.353 11.4013C175.424 11.4906 175.569 11.7679 175.419 12.4352C175.349 12.7501 175.175 13.206 174.93 13.4504C174.578 13.784 174.094 13.8169 173.746 13.8169H173.117C172.102 13.8169 171.223 14.3762 171.04 15.2033L170.983 15.4665C170.852 16.0634 171.171 16.5897 171.453 17.1302L173.107 20.3213H177.872L175.184 16.6602L175.198 16.5897H175.724C176.669 16.5897 177.646 16.1527 178.342 15.0671C178.985 14.066 179.343 12.6138 179.469 12.0546C179.676 11.124 179.813 10.0384 179.465 9.24886C178.924 8.05515 177.576 8.05515 176.805 8.05515H170.128C169.653 8.05515 168.916 8.14445 168.347 8.65201C167.797 9.14078 167.609 9.84572 167.483 10.405L165.265 20.3213ZM156.905 13.7323L157.333 11.8243C157.389 11.5611 157.544 11.1052 158.179 11.1052H160.368C160.824 11.1052 161.28 11.1052 161.548 11.3872C161.806 11.6504 161.755 12.0358 161.684 12.3506C161.571 12.8582 161.369 13.2107 161.13 13.4175C160.721 13.7699 160.237 13.7323 159.748 13.7323H156.905ZM155.439 20.3213L156.229 16.7824H161.398C162.065 16.7824 163.014 16.6085 163.7 16.1151C164.936 15.2221 165.471 13.1167 165.664 12.2614C166.059 10.4896 165.941 9.52615 165.5 8.91519C164.983 8.17735 164.099 8.05515 163.117 8.05515H156.337C155.496 8.05515 154.899 8.38883 154.565 8.68491C154.039 9.15958 153.814 9.85982 153.701 10.3674L151.478 20.3213H155.439ZM123.665 20.3213L124.328 17.3417H118.337C118.093 17.3417 117.773 17.3605 117.618 17.1819C117.547 17.1114 117.491 16.9704 117.543 16.726L117.839 15.396H124.53L125.122 12.7313H118.431L118.638 11.8008C118.671 11.641 118.736 11.3637 118.962 11.2039C119.131 11.0817 119.385 11.03 119.615 11.03H125.677L126.339 8.05046H117.529C117.092 8.05046 116.481 8.12094 115.931 8.53921C115.381 8.96218 115.198 9.46975 115.095 9.93972L113.22 18.3521C113.093 18.9302 112.98 19.4189 113.436 19.8936C113.821 20.279 114.324 20.3119 114.832 20.3119H123.665V20.3213ZM104.428 13.7323L104.856 11.8243C104.917 11.5611 105.067 11.1052 105.702 11.1052H107.891C108.347 11.1052 108.803 11.1052 109.071 11.3872C109.329 11.6504 109.277 12.0358 109.207 12.3506C109.094 12.8582 108.892 13.2107 108.652 13.4175C108.239 13.7699 107.76 13.7323 107.266 13.7323H104.428ZM102.957 20.3213L103.747 16.7824H108.916C109.583 16.7824 110.532 16.6085 111.218 16.1151C112.449 15.2221 112.99 13.1167 113.182 12.2614C113.577 10.4896 113.459 9.52615 113.018 8.91519C112.496 8.17735 111.613 8.05515 110.635 8.05515H103.855C103.014 8.05515 102.412 8.38883 102.083 8.68491C101.557 9.15958 101.332 9.85982 101.219 10.3674L99.0009 20.3213H102.957ZM86.2951 20.3213H94.7062C95.5473 20.3213 96.4776 20.3025 97.3845 19.3767C98.1082 18.6388 98.3619 17.6613 98.5217 16.9422C98.7096 16.101 98.907 14.8932 98.3055 14.1412C97.9625 13.7041 97.3093 13.4222 96.7972 13.2812L92.9112 12.1768C92.4648 12.0546 91.9385 11.8948 92.0278 11.5094C92.0607 11.3684 92.1782 11.2274 92.2956 11.1757C92.3755 11.1428 92.5024 11.1052 92.9582 11.1052H99.1936L99.875 8.05515H91.7788C90.7262 8.05515 89.9744 8.44053 89.5045 8.8259C88.6258 9.54495 88.358 10.5084 88.1841 11.2791C87.9821 12.1909 87.8317 13.2436 88.2405 14.0143C88.4096 14.348 88.7574 14.7522 89.434 14.9449L93.8839 16.2749C94.2645 16.3783 94.6216 16.5005 94.537 16.8905C94.4994 17.0644 94.3444 17.2759 93.7664 17.2759H86.9671L86.2951 20.3213ZM77.2404 14.1882C77.4659 13.1731 77.6351 12.5057 78.2178 11.8572C78.9226 11.0535 79.6274 10.9642 80.6424 10.9642C81.6761 10.9642 82.3058 11.0535 82.6676 11.8572C82.9871 12.5386 82.8415 13.1167 82.6018 14.1882C82.381 15.1704 82.2306 15.8519 81.6245 16.5192C80.9008 17.3229 80.2336 17.4122 79.1998 17.4122C78.199 17.4122 77.5223 17.3229 77.1746 16.5192C76.9115 15.9083 77.0289 15.1516 77.2404 14.1882ZM81.3237 7.91887C79.4677 7.91887 77.2639 7.97056 75.6803 9.17837C74.0733 10.405 73.5471 12.5433 73.1758 14.1882C72.814 15.8002 72.3864 17.9573 73.4437 19.1981C74.4727 20.4059 76.7 20.4576 78.5232 20.4576C80.3464 20.4576 82.5971 20.4059 84.1665 19.1981C85.7736 17.9526 86.3092 15.8002 86.6664 14.1882C87.0329 12.5433 87.4605 10.405 86.3985 9.17837C85.3554 7.97056 83.1798 7.91887 81.3237 7.91887ZM67.4291 20.3213L69.4872 11.1052H73.8666L74.5479 8.05515H61.828L61.1467 11.1052H65.526L63.4679 20.3213H67.4291ZM51.3589 8.05515H47.1205L49.0517 18.479C49.2491 19.5458 49.7472 20.4576 51.6925 20.4576C53.6378 20.4576 54.54 19.5458 55.2167 18.479L61.7998 8.05515H57.5614L52.8296 16.3783C52.7122 16.5897 52.5947 16.6414 52.543 16.6414C52.4913 16.6414 52.3973 16.5897 52.3738 16.3783L51.3589 8.05515ZM40.1661 11.8948C40.2225 11.8055 40.3306 11.6316 40.3823 11.6316C40.4339 11.6316 40.4668 11.8055 40.4809 11.8948L40.8944 14.9966H38.3711L40.1661 11.8948ZM31.1019 20.3213H35.2699L36.797 17.7976H41.214L41.6134 20.3213H45.7813L43.6809 9.40396C43.4084 8.03636 42.384 7.91416 41.2093 7.91416C39.3156 7.91416 38.6625 8.49223 38.0751 9.40396L31.1019 20.3213ZM133.12 20.3213L135.178 11.1052H139.557L140.238 8.05515H127.519L126.837 11.1052H131.217L129.158 20.3213H133.12ZM138.702 20.3213H147.113C147.954 20.3213 148.884 20.3025 149.791 19.3767C150.515 18.6388 150.769 17.6613 150.928 16.9422C151.116 16.101 151.314 14.8932 150.712 14.1412C150.369 13.7041 149.716 13.4222 149.204 13.2812L145.318 12.1768C144.872 12.0546 144.345 11.8948 144.435 11.5094C144.467 11.3684 144.585 11.2274 144.702 11.1757C144.782 11.1428 144.909 11.1052 145.365 11.1052H151.6L152.282 8.05515H144.186C143.133 8.05515 142.381 8.44053 141.911 8.8259C141.033 9.54495 140.765 10.5084 140.591 11.2791C140.389 12.1909 140.238 13.2436 140.647 14.0143C140.816 14.348 141.164 14.7522 141.841 14.9449L146.291 16.2749C146.671 16.3783 147.028 16.5005 146.944 16.8905C146.906 17.0644 146.751 17.2759 146.173 17.2759H139.379L138.702 20.3213Z" fill="var(--fill-0, #5E6A70)"/>
<path id="Vector_2" fill-rule="evenodd" clip-rule="evenodd" d="M15.3042 13.3328L14.1247 8.79297L12.9453 13.3328H15.3042Z" fill="var(--fill-0, #5E6A70)"/>
<path id="Vector_3" fill-rule="evenodd" clip-rule="evenodd" d="M0 14.978H7.45715L9.93347 19.2829C10.0368 19.4803 10.2201 19.6307 10.4503 19.6918C10.8873 19.8046 11.3337 19.5414 11.4465 19.1043L12.5179 14.978H15.7319L16.8032 19.1043C16.8549 19.3111 16.9912 19.4944 17.1885 19.6072C17.5786 19.8328 18.0813 19.6965 18.3022 19.3064L20.7926 14.978H28.2497C28.1417 16.8955 27.6483 18.7143 26.8495 20.3544H20.3227V26.8823C18.4525 27.794 16.3475 28.311 14.1249 28.311C11.9023 28.311 9.7972 27.7987 7.92704 26.8823V20.3544H1.40028C0.601463 18.7143 0.108075 16.8955 0 14.978Z" fill="var(--fill-0, #5E6A70)"/>
<path id="Vector_4" d="M80.0315 31.9226H80.9335L81.5328 30.4116H85.3103L85.8733 31.9226H86.7632L83.9724 24.5638H82.7617L80.0315 31.9226ZM85.0439 29.6918H81.7326L83.3852 25.1706L85.0439 29.6918ZM89.0394 24.5638H87.6712V31.9226H88.5006V25.2241L91.3519 31.9226H92.0723L94.8994 25.1527V31.9226H95.7287V24.5638H94.3606L91.703 30.8696L89.0394 24.5638ZM97.9565 28.5317H100.614C101.704 28.5317 102.012 28.6507 102.012 29.8464C102.012 31.0541 101.54 31.2028 100.263 31.2028H97.9565V28.5317ZM97.9565 25.2776H100.644C101.546 25.2776 101.795 25.5513 101.795 26.4436C101.795 27.4966 101.443 27.8119 100.336 27.8119H97.9565V25.2776ZM97.1271 31.9226H100.947C102.388 31.9226 102.848 31.1076 102.848 29.7929C102.848 28.8232 102.69 28.3294 101.698 28.0617C102.545 27.7643 102.63 27.1991 102.63 26.3722C102.63 25.0456 102.019 24.5638 100.741 24.5638H97.1332V31.9226H97.1271ZM104.083 24.5638V29.7393C104.083 31.8988 105.16 31.9999 107.013 31.9999C108.944 31.9999 109.973 31.9048 109.973 29.7393V24.5638H109.144V29.7215C109.144 31.066 108.823 31.2861 107.013 31.2861C105.215 31.2861 104.912 31.0719 104.912 29.7215V24.5638H104.083ZM112.219 24.5638H111.39V31.9226H116.009V31.2028H112.219V24.5638ZM116.481 31.9226H117.383L117.982 30.4116H121.76L122.317 31.9226H123.207L120.416 24.5638H119.205L116.481 31.9226ZM121.487 29.6918H118.176L119.829 25.1706L121.487 29.6918ZM124.115 24.5638V31.9226H124.944V25.2717L129.163 31.9226H130.483V24.5638H129.654V31.2801L125.434 24.5638H124.115ZM136.833 29.4657C136.833 30.9172 136.446 31.2861 134.672 31.2861C132.965 31.2861 132.511 30.8042 132.511 28.27C132.511 25.7357 132.971 25.2062 134.672 25.2062C136.41 25.2062 136.591 25.6108 136.731 26.8957H137.542C137.439 25.236 137.07 24.4864 134.672 24.4864C132.402 24.4864 131.682 25.1646 131.682 28.27C131.682 31.3932 132.408 31.9999 134.672 31.9999C137.021 31.9999 137.639 31.3694 137.639 29.4657H136.833ZM138.589 24.5638V31.9226H143.39V31.2028H139.418V28.5317H143.226V27.8119H139.418V25.2776H143.408V24.5578H138.589V24.5638ZM147.76 29.0433H149.988C151.895 29.0433 152.476 28.4425 152.476 26.6578C152.476 25.1944 151.943 24.5638 150.497 24.5638H146.931V31.9226H147.76V29.0433ZM147.76 25.2776H150.382C151.459 25.2776 151.653 25.7119 151.653 26.7589C151.653 28.0736 151.09 28.3235 149.752 28.3235H147.76V25.2776ZM154.413 28.9422H156.944C157.894 28.9422 158.385 29.2753 158.385 30.251V31.9226H159.214V30.0546C159.214 29.2396 158.905 28.7102 158.046 28.6507C159.123 28.4365 159.317 27.6096 159.317 26.6459C159.317 25.1051 158.609 24.5638 157.15 24.5638H153.59V31.9226H154.419V28.9422H154.413ZM154.413 25.2776H157.144C158.094 25.2776 158.481 25.6524 158.481 26.7708C158.481 27.913 157.991 28.2224 156.859 28.2224H154.413V25.2776ZM160.37 28.2462C160.37 31.3694 161 31.9999 163.512 31.9999C166.043 31.9999 166.648 31.3694 166.648 28.2462C166.648 25.1111 166.036 24.4805 163.53 24.4805C161 24.4864 160.37 25.1111 160.37 28.2462ZM161.2 28.2462C161.2 25.6346 161.448 25.2003 163.518 25.2003C165.564 25.2003 165.819 25.6346 165.819 28.2462C165.819 30.8399 165.558 31.2801 163.518 31.2801C161.484 31.2801 161.2 30.8399 161.2 28.2462ZM167.859 31.9226H171.539C173.761 31.9226 174.052 30.2629 174.052 28.2521C174.052 26.1819 173.749 24.5697 171.321 24.5697H167.865V31.9226H167.859ZM168.688 25.2776H171.097C172.568 25.2776 173.216 25.9142 173.216 28.2462C173.216 30.5662 172.587 31.2028 171.128 31.2028H168.688V25.2776ZM175.226 24.5638V29.7393C175.226 31.8988 176.304 31.9999 178.156 31.9999C180.087 31.9999 181.116 31.9048 181.116 29.7393V24.5638H180.287V29.7215C180.287 31.066 179.966 31.2861 178.156 31.2861C176.358 31.2861 176.055 31.0719 176.055 29.7215V24.5638H175.226ZM187.479 29.4657C187.479 30.9172 187.091 31.2861 185.318 31.2861C183.61 31.2861 183.156 30.8042 183.156 28.27C183.156 25.7357 183.617 25.2062 185.318 25.2062C187.055 25.2062 187.237 25.6108 187.376 26.8957H188.187C188.084 25.236 187.715 24.4864 185.318 24.4864C183.047 24.4864 182.327 25.1646 182.327 28.27C182.327 31.3932 183.06 31.9999 185.318 31.9999C187.666 31.9999 188.284 31.3694 188.284 29.4657H187.479ZM191.94 25.2776H194.356V24.5578H188.69V25.2776H191.111V31.9167H191.94V25.2776ZM196.081 24.5638H195.252V31.9226H196.081V24.5638ZM197.28 28.2462C197.28 31.3694 197.909 31.9999 200.416 31.9999C202.946 31.9999 203.551 31.3694 203.551 28.2462C203.551 25.1111 202.94 24.4805 200.434 24.4805C197.909 24.4864 197.28 25.1111 197.28 28.2462ZM198.109 28.2462C198.109 25.6346 198.357 25.2003 200.428 25.2003C202.474 25.2003 202.728 25.6346 202.728 28.2462C202.728 30.8399 202.468 31.2801 200.428 31.2801C198.388 31.2801 198.109 30.8399 198.109 28.2462ZM204.762 24.5638V31.9226H205.591V25.2717L209.811 31.9226H211.131V24.5638H210.301V31.2801L206.082 24.5638H204.762Z" fill="var(--fill-0, #5E6A70)"/>
<path id="Vector_5" fill-rule="evenodd" clip-rule="evenodd" d="M1.39899 7.95653H7.92575V1.4287C9.79591 0.516967 11.901 0 14.1236 0C16.3462 0 18.4466 0.512267 20.3214 1.4287V7.95653H26.8482C27.647 9.59671 28.1404 11.4155 28.2485 13.3329H20.3214C19.9878 13.3329 19.7059 13.5303 19.5743 13.8123L17.8827 16.7543L14.9177 5.32942C14.8049 4.89235 14.3585 4.62917 13.9215 4.74196C13.6255 4.81715 13.4094 5.05214 13.3342 5.32942L10.3692 16.7496L8.63998 13.7418C8.48962 13.4786 8.21238 13.3329 7.93045 13.3329V13.3282H0.00341797C0.106794 11.4155 0.600178 9.59671 1.39899 7.95653Z" fill="var(--fill-0, #E42313)"/>
<path id="Vector_6" fill-rule="evenodd" clip-rule="evenodd" d="M212.197 13.3329H208.335L208.452 12.8535C208.527 12.5198 208.452 12.4493 208.386 12.4493C208.316 12.4493 208.222 12.5527 208.043 12.8864L207.804 13.3282H204.909L206.789 9.94442C207.846 8.03636 209.345 7.91416 210.398 7.91416C213.184 7.91416 213.099 9.31466 212.93 10.0713L212.197 13.3329ZM58.4636 13.3329H54.5588L57.5567 8.05515H61.7951L58.4636 13.3329ZM179.112 13.3329H175.029C175.222 13.0744 175.358 12.7031 175.414 12.4352C175.565 11.7679 175.414 11.4906 175.349 11.4013C175.123 11.0864 174.681 11.1052 174.31 11.1052H172.12C171.895 11.1052 171.679 11.124 171.463 11.2979C171.167 11.5282 171.129 11.7726 171.063 12.0687L170.781 13.3329H166.82L167.473 10.4003C167.595 9.84103 167.788 9.14077 168.338 8.64731C168.906 8.13974 169.644 8.05046 170.119 8.05046H176.796C177.566 8.05046 178.915 8.05045 179.455 9.24416C179.803 10.0337 179.667 11.1193 179.46 12.0499C179.399 12.3224 179.286 12.8018 179.112 13.3329ZM44.4374 13.3329L43.6809 9.40396C43.4084 8.03636 42.384 7.91416 41.2093 7.91416C39.3156 7.91416 38.6625 8.49223 38.0751 9.40396L35.5659 13.3329H39.3297L40.1661 11.8901C40.2225 11.8008 40.3306 11.6269 40.3823 11.6269C40.4339 11.6269 40.4668 11.8008 40.4809 11.8901L40.6736 13.3329H44.4374ZM52.0026 13.3329H48.0978L47.1205 8.05515H51.3589L52.0026 13.3329ZM68.9891 13.3329H65.028L65.526 11.1052H61.1467L61.828 8.05515H74.5479L73.8666 11.1052H69.4872L68.9891 13.3329ZM86.8449 13.3329H82.7804C82.8838 12.7595 82.8884 12.3319 82.6629 11.8572C82.3011 11.0535 81.6714 10.9642 80.6377 10.9642C79.6227 10.9642 78.9179 11.0535 78.2131 11.8572C77.8089 12.3037 77.6069 12.7595 77.4471 13.3329H73.3732C73.7444 11.8572 74.3365 10.1982 75.6757 9.17367C77.2592 7.96585 79.4629 7.91416 81.319 7.91416C83.1751 7.91416 85.3554 7.96585 86.3985 9.17367C87.2819 10.2029 87.1362 11.8572 86.8449 13.3329ZM96.9945 13.3329H88.029C87.9257 12.6843 88.0431 11.9418 88.1888 11.2791C88.3627 10.5084 88.6305 9.54495 89.5092 8.8259C89.9791 8.44053 90.7309 8.05515 91.7835 8.05515H99.8796L99.1983 11.1052H92.9629C92.5071 11.1052 92.3755 11.1381 92.3003 11.1757C92.1829 11.2274 92.0654 11.3684 92.0325 11.5094C91.9479 11.8948 92.4742 12.0546 92.9159 12.1768L96.8019 13.2812C96.8677 13.2953 96.9287 13.3141 96.9945 13.3329ZM112.896 13.3329H108.732C108.934 13.1167 109.099 12.7924 109.202 12.3459C109.273 12.0311 109.324 11.6457 109.066 11.3825C108.798 11.1005 108.342 11.1005 107.887 11.1005H105.697C105.067 11.1005 104.912 11.5564 104.851 11.8196L104.513 13.3329H100.552L101.214 10.3674C101.327 9.85982 101.552 9.15958 102.079 8.68491C102.408 8.38883 103.009 8.05515 103.85 8.05515H110.631C111.613 8.05515 112.496 8.17735 113.013 8.91519C113.455 9.53085 113.572 10.4943 113.178 12.2614C113.121 12.5245 113.032 12.9052 112.896 13.3329ZM124.995 13.3329H114.343L115.099 9.94911C115.203 9.47444 115.386 8.96689 115.936 8.54862C116.486 8.13035 117.096 8.05985 117.533 8.05985H126.344L125.681 11.0394H119.62C119.389 11.0394 119.136 11.0911 118.967 11.2133C118.736 11.3684 118.675 11.6504 118.642 11.8102L118.436 12.7407H125.127L124.995 13.3329ZM165.378 13.3329H161.214C161.416 13.1167 161.581 12.7924 161.684 12.3459C161.755 12.0311 161.806 11.6457 161.548 11.3825C161.28 11.1005 160.82 11.1005 160.368 11.1005H158.179C157.549 11.1005 157.394 11.5564 157.333 11.8196L156.995 13.3329H153.034L153.696 10.3674C153.809 9.85982 154.034 9.15958 154.561 8.68491C154.89 8.38883 155.491 8.05515 156.332 8.05515H163.113C164.095 8.05515 164.978 8.17735 165.495 8.91519C165.937 9.53085 166.054 10.4943 165.659 12.2614C165.603 12.5245 165.514 12.9052 165.378 13.3329ZM193.778 13.3329H189.713C189.816 12.7595 189.821 12.3319 189.596 11.8572C189.234 11.0535 188.604 10.9642 187.57 10.9642C186.555 10.9642 185.851 11.0535 185.146 11.8572C184.746 12.3037 184.54 12.7595 184.38 13.3329H180.306C180.677 11.8572 181.269 10.1982 182.608 9.17367C184.192 7.96585 186.391 7.91416 188.252 7.91416C190.108 7.91416 192.288 7.96585 193.331 9.17367C194.21 10.2029 194.064 11.8572 193.778 13.3329ZM202.461 13.3329H199.567L199.524 12.8911C199.506 12.6655 199.463 12.454 199.379 12.454C199.219 12.454 199.177 12.736 199.148 12.8582L199.05 13.3376H195.187L195.916 10.076C196.395 7.91886 198.777 7.91887 199.412 7.91887C200.445 7.91887 201.888 8.04105 202.095 9.94911L202.461 13.3329ZM134.68 13.3329H130.718L131.217 11.1052H126.837L127.519 8.05515H140.238L139.557 11.1052H135.178L134.68 13.3329ZM149.397 13.3329H140.431C140.328 12.6843 140.445 11.9418 140.591 11.2791C140.765 10.5084 141.033 9.54495 141.911 8.8259C142.381 8.44053 143.133 8.05515 144.186 8.05515H152.282L151.6 11.1052H145.365C144.909 11.1052 144.778 11.1381 144.702 11.1757C144.585 11.2274 144.467 11.3684 144.435 11.5094C144.35 11.8948 144.876 12.0546 145.318 12.1768L149.204 13.2812C149.27 13.2953 149.331 13.3141 149.397 13.3329Z" fill="var(--fill-0, #E42313)"/>
</g>
</svg>
