<svg preserveAspectRatio="none" width="100%" height="100%" overflow="visible" style="display: block;" viewBox="0 0 30.9999 30.9999" fill="none" xmlns="http://www.w3.org/2000/svg">
<g id="Group">
<path id="Vector" fill-rule="evenodd" clip-rule="evenodd" d="M25.8764 14.2654C27.6879 16.2727 29.0383 18.0143 29.9277 19.5758C33.1847 25.2946 28.5513 31.1031 22.3461 30.9985C16.1409 31.1031 11.5076 25.2946 14.7646 19.5758C15.6539 18.0143 17.0044 16.2727 18.8158 14.2654C19.0372 14.3355 19.2681 14.3711 19.5004 14.371H25.1918C25.4303 14.371 25.6602 14.3339 25.8764 14.2654ZM2.84162 0C1.27869 0 0 1.27875 0 2.84162V23.6152C0 25.1782 1.27869 26.4569 2.84162 26.4569H13.3059C12.2831 24.0131 12.5926 21.369 13.8957 19.0809C14.1619 18.6136 14.4539 18.1504 14.7652 17.6927C14.5851 17.5762 14.4655 17.3736 14.4655 17.1439V16.2947C14.4655 15.9349 14.7589 15.6414 15.1187 15.6414H16.3036C16.8331 14.9905 17.3841 14.3569 17.9356 13.7452C17.7721 13.5902 17.6325 13.412 17.5211 13.2162H15.1187C14.7589 13.2162 14.4655 12.9228 14.4655 12.563V11.7137C14.4655 11.3539 14.7589 11.0604 15.1187 11.0604H17.4744C17.6778 10.665 17.9917 10.3372 18.3779 10.1167L17.6991 9.43794C17.2859 9.02475 17.0625 8.49194 17.0286 7.94931H3.78881C3.429 7.94931 3.13556 7.65587 3.13556 7.29606V4.732C3.13556 4.37219 3.429 4.07875 3.78881 4.07875H18.1605C18.5203 4.07875 18.8137 4.37219 18.8137 4.732V5.55406C19.2747 5.44831 19.7651 5.4835 20.2132 5.66731C20.5162 4.94206 21.1734 4.41506 21.9494 4.27925V2.84162C21.9494 1.27875 20.6706 0 19.1077 0H2.84162ZM19.5004 13.371C18.7987 13.371 18.2247 12.7969 18.2247 12.0952C18.2247 11.3936 18.7987 10.8196 19.5004 10.8196H25.1919C25.8936 10.8196 26.4676 11.3936 26.4676 12.0953C26.4676 12.7969 25.8936 13.371 25.1919 13.371H19.5004ZM4.389 11.0604H6.83056C7.19038 11.0604 7.48381 11.3539 7.48381 11.7137V12.5629C7.48381 12.9227 7.19038 13.2162 6.83056 13.2162H4.389C4.02919 13.2162 3.73575 12.9227 3.73575 12.5629V11.7137C3.73575 11.3539 4.02919 11.0604 4.389 11.0604ZM9.75387 20.2224C9.39406 20.2224 9.10062 20.5158 9.10062 20.8756V21.7249C9.10062 22.0847 9.39406 22.3781 9.75387 22.3781H12.1954C12.5552 22.3781 12.8487 22.0847 12.8487 21.7249V20.8756C12.8487 20.5158 12.5552 20.2224 12.1954 20.2224H9.75387ZM4.389 20.2224H6.83056C7.19038 20.2224 7.48381 20.5158 7.48381 20.8756V21.7249C7.48381 22.0847 7.19038 22.3781 6.83056 22.3781H4.389C4.02919 22.3781 3.73575 22.0847 3.73575 21.7249V20.8756C3.73575 20.5158 4.02919 20.2224 4.389 20.2224ZM9.75387 15.6414C9.39406 15.6414 9.10062 15.9348 9.10062 16.2946V17.1439C9.10062 17.5037 9.39406 17.7971 9.75387 17.7971H12.1954C12.5552 17.7971 12.8487 17.5037 12.8487 17.1439V16.2946C12.8487 15.9348 12.5552 15.6414 12.1954 15.6414H9.75387ZM4.389 15.6414H6.83056C7.19038 15.6414 7.48381 15.9348 7.48381 16.2946V17.1439C7.48381 17.5037 7.19038 17.7971 6.83056 17.7971H4.389C4.02919 17.7971 3.73575 17.5037 3.73575 17.1439V16.2946C3.73575 15.9349 4.02919 15.6414 4.389 15.6414ZM9.75387 11.0604H12.1954C12.5552 11.0604 12.8487 11.3539 12.8487 11.7137V12.5629C12.8487 12.9227 12.5552 13.2162 12.1954 13.2162H9.75387C9.39406 13.2162 9.10062 12.9227 9.10062 12.5629V11.7137C9.10062 11.3539 9.39406 11.0604 9.75387 11.0604ZM22.2807 24.9991C21.8973 24.9891 21.5251 24.8853 21.2284 24.6877C20.9599 24.5089 20.7548 24.2473 20.6691 23.9037C20.651 23.8299 20.6185 23.7605 20.5735 23.6993C20.5285 23.6381 20.4719 23.5863 20.4069 23.547C20.3419 23.5077 20.2699 23.4815 20.1948 23.4701C20.1197 23.4586 20.0431 23.462 19.9693 23.4802C19.8956 23.4983 19.8261 23.5308 19.7649 23.5758C19.7037 23.6208 19.652 23.6774 19.6126 23.7424C19.5733 23.8074 19.5472 23.8795 19.5357 23.9545C19.5242 24.0296 19.5277 24.1062 19.5458 24.18C19.7076 24.8291 20.0903 25.3198 20.5898 25.6525C20.931 25.8797 21.3273 26.0299 21.7422 26.1031V26.5532C21.7438 26.7059 21.8056 26.8518 21.9141 26.9593C22.0227 27.0667 22.1692 27.127 22.322 27.127C22.4747 27.127 22.6213 27.0667 22.7298 26.9593C22.8384 26.8518 22.9002 26.7059 22.9017 26.5532V26.1142C23.406 26.0373 23.9197 25.8532 24.3231 25.5472C24.8079 25.1794 25.1303 24.6527 25.1135 23.9459C25.1122 23.8748 25.1076 23.8037 25.0996 23.733C25.0056 22.9585 24.5866 22.4544 24.0309 22.1189C23.5429 21.8242 22.9577 21.6775 22.4211 21.5894C22.0341 21.5259 21.6265 21.4184 21.328 21.2235C21.0967 21.0725 20.9308 20.8539 20.9152 20.5342C20.8984 20.1884 21.0494 19.9093 21.2874 19.7159C21.4737 19.5644 21.7115 19.4591 21.9692 19.4072C22.0741 19.3861 22.1805 19.3742 22.2874 19.3714C22.3128 19.373 22.3381 19.3728 22.3634 19.371C22.5059 19.3731 22.6495 19.3914 22.7897 19.4269C23.2207 19.5361 23.6131 19.8202 23.8197 20.3124C23.9436 20.6076 24.2833 20.7464 24.5784 20.6226C24.8736 20.4988 25.0125 20.1591 24.8887 19.8639C24.5248 18.9973 23.8321 18.4966 23.0705 18.3036C23.0146 18.2894 22.9584 18.2769 22.9017 18.2662V17.817C22.899 17.665 22.8367 17.5202 22.7283 17.4137C22.6199 17.3072 22.474 17.2475 22.322 17.2475C22.17 17.2475 22.0241 17.3072 21.9156 17.4137C21.8072 17.5202 21.7449 17.665 21.7422 17.817V18.2749C21.3029 18.3635 20.8904 18.5489 20.5581 18.8191C20.0475 19.2342 19.7237 19.8371 19.7602 20.5887C19.7968 21.3439 20.1737 21.8504 20.6984 22.1929C21.1557 22.4915 21.7174 22.646 22.2354 22.731C22.6514 22.7993 23.0956 22.9072 23.4331 23.111C23.703 23.2739 23.9057 23.5121 23.9491 23.869C23.9548 23.9166 23.9579 23.9511 23.9584 23.9732C23.9652 24.2569 23.8294 24.4731 23.6256 24.6278C23.3704 24.8214 23.012 24.9356 22.6536 24.9791C22.5561 24.9909 22.4708 24.9977 22.3986 24.9994L22.3709 24.9999C22.3546 24.9985 22.3383 24.9978 22.3219 24.9978C22.3082 24.9977 22.2944 24.9981 22.2807 24.9991ZM19.495 9.81962L18.4062 8.73081C17.8963 8.22094 17.8963 7.38662 18.4062 6.87681C18.8398 6.44312 19.5263 6.36987 20.0423 6.70106C20.234 6.82406 20.4541 6.84369 20.6644 6.75662C20.8747 6.6695 21.0165 6.50006 21.0651 6.2775C21.1936 5.689 21.7204 5.24481 22.3461 5.24469C22.9604 5.24469 23.4963 5.67775 23.6272 6.2775C23.6758 6.50006 23.8176 6.6695 24.0279 6.75662C24.2383 6.84381 24.4584 6.82406 24.6499 6.70106C25.1569 6.37569 25.8437 6.43437 26.2861 6.87669V6.87681C26.7959 7.38669 26.7959 8.221 26.2861 8.73081L25.1973 9.81962L25.1918 9.81956H19.5004L19.495 9.81962Z" fill="var(--fill-0, #E42313)"/>
</g>
</svg>
