<svg preserveAspectRatio="none" width="100%" height="100%" overflow="visible" style="display: block;" viewBox="0 0 40 40" fill="none" xmlns="http://www.w3.org/2000/svg">
<g id="Vector">
<path fill-rule="evenodd" clip-rule="evenodd" d="M21.6698 18.838L19.9998 12.4236L18.3298 18.838H21.6698Z" fill="var(--fill-0, white)"/>
<path fill-rule="evenodd" clip-rule="evenodd" d="M0 21.1621H10.5589L14.0652 27.2444C14.2116 27.5233 14.4711 27.7358 14.7971 27.8221C15.4158 27.9814 16.0479 27.6096 16.2076 26.9921L17.7246 21.1621H22.2755L23.7924 26.9921C23.8656 27.2842 24.0586 27.5432 24.338 27.7026C24.8902 28.0213 25.6021 27.8287 25.9148 27.2776L29.4411 21.1621H40C39.847 23.8712 39.1484 26.4409 38.0173 28.7583H28.7758V37.9814C26.1277 39.2696 23.147 40 20 40C16.853 40 13.8723 39.2762 11.2242 37.9814V28.7583H1.98271C0.851637 26.4409 0.153027 23.8712 0 21.1621Z" fill="var(--fill-0, white)"/>
<path fill-rule="evenodd" clip-rule="evenodd" d="M1.98089 11.2417H11.2224V2.01859C13.8704 0.730415 16.8511 0 19.9982 0C23.1452 0 26.1193 0.723775 28.774 2.01859V11.2417H38.0155C39.1466 13.5591 39.8452 16.1288 39.9982 18.8379H28.774C28.3016 18.8379 27.9024 19.1168 27.7161 19.5152L25.3209 23.6719L21.1226 7.52986C20.9629 6.91233 20.3309 6.54049 19.7121 6.69985C19.2929 6.80609 18.9869 7.13809 18.8804 7.52986L14.6821 23.6653L12.2337 19.4156C12.0208 19.0438 11.6283 18.8379 11.2291 18.8379V18.8313H0.00483965C0.151214 16.1288 0.849817 13.5591 1.98089 11.2417Z" fill="var(--fill-0, white)"/>
</g>
</svg>
