<svg preserveAspectRatio="none" width="100%" height="100%" overflow="visible" style="display: block;" viewBox="0 0 52 52" fill="none" xmlns="http://www.w3.org/2000/svg">
<g id="marker-kyiv" filter="url(#filter0_d_0_532)">
<rect x="12" y="6" width="28" height="28" rx="14" fill="var(--fill-0, #E42313)"/>
<g id="Vector">
<path fill-rule="evenodd" clip-rule="evenodd" d="M26.6679 19.5351L25.9999 16.9694L25.3319 19.5351H26.6679Z" fill="white"/>
<path fill-rule="evenodd" clip-rule="evenodd" d="M18 20.4649H22.2236L23.6261 22.8978C23.6846 23.0093 23.7884 23.0943 23.9188 23.1289C24.1663 23.1926 24.4192 23.0439 24.483 22.7969L25.0898 20.4649H26.9102L27.517 22.7969C27.5462 22.9137 27.6234 23.0173 27.7352 23.081C27.9561 23.2085 28.2409 23.1315 28.3659 22.9111L29.7764 20.4649H34C33.9388 21.5485 33.6594 22.5764 33.2069 23.5034H29.5103V27.1926C28.4511 27.7078 27.2588 28 26 28C24.7412 28 23.5489 27.7105 22.4897 27.1926V23.5034H18.7931C18.3407 22.5764 18.0612 21.5485 18 20.4649Z" fill="white"/>
<path fill-rule="evenodd" clip-rule="evenodd" d="M18.7924 16.4966H22.489V12.8074C23.5482 12.2922 24.7405 12 25.9993 12C27.2581 12 28.4477 12.2895 29.5096 12.8074V16.4966H33.2062C33.6586 17.4236 33.9381 18.4515 33.9993 19.5351H29.5096C29.3206 19.5351 29.1609 19.6467 29.0864 19.8061L28.1284 21.4687L26.449 15.0119C26.3852 14.7649 26.1323 14.6162 25.8848 14.6799C25.7172 14.7224 25.5947 14.8552 25.5522 15.0119L23.8729 21.4661L22.8935 19.7662C22.8083 19.6175 22.6513 19.5351 22.4916 19.5351V19.5325H18.0019C18.0605 18.4515 18.3399 17.4236 18.7924 16.4966Z" fill="var(--fill-0, white)"/>
</g>
</g>
<defs>
<filter id="filter0_d_0_532" x="0" y="0" width="52" height="52" filterUnits="userSpaceOnUse" color-interpolation-filters="sRGB">
<feFlood flood-opacity="0" result="BackgroundImageFix"/>
<feColorMatrix in="SourceAlpha" type="matrix" values="0 0 0 0 0 0 0 0 0 0 0 0 0 0 0 0 0 0 127 0" result="hardAlpha"/>
<feOffset dy="6"/>
<feGaussianBlur stdDeviation="6"/>
<feColorMatrix type="matrix" values="0 0 0 0 0 0 0 0 0 0 0 0 0 0 0 0 0 0 0.14902 0"/>
<feBlend mode="normal" in2="BackgroundImageFix" result="effect1_dropShadow_0_532"/>
<feBlend mode="normal" in="SourceGraphic" in2="effect1_dropShadow_0_532" result="shape"/>
</filter>
</defs>
</svg>
