<svg preserveAspectRatio="none" width="100%" height="100%" overflow="visible" style="display: block;" viewBox="0 0 66 66" fill="none" xmlns="http://www.w3.org/2000/svg">
<g id="marker-kyiv" filter="url(#filter0_d_0_595)">
<rect x="12" y="6" width="42" height="42" rx="21" fill="var(--fill-0, white)"/>
<g id="Vector">
<path fill-rule="evenodd" clip-rule="evenodd" d="M34.0854 26.2445L32.9999 22.0752L31.9144 26.2445H34.0854Z" fill="var(--fill-0, #E42313)"/>
<path fill-rule="evenodd" clip-rule="evenodd" d="M20 27.7554H26.8633L29.1424 31.7089C29.2375 31.8902 29.4062 32.0283 29.6181 32.0844C30.0203 32.188 30.4311 31.9463 30.5349 31.5449L31.521 27.7554H34.479L35.4651 31.5449C35.5126 31.7348 35.6381 31.9031 35.8197 32.0067C36.1786 32.2139 36.6414 32.0887 36.8446 31.7305L39.1367 27.7554H46C45.9005 29.5163 45.4464 31.1867 44.7113 32.6929H38.7043V38.6879C36.983 39.5252 35.0456 40 33 40C30.9544 40 29.017 39.5295 27.2957 38.6879V32.6929H21.2888C20.5536 31.1867 20.0995 29.5163 20 27.7554Z" fill="var(--fill-0, #E42313)"/>
<path fill-rule="evenodd" clip-rule="evenodd" d="M21.2876 21.3071H27.2946V15.3121C29.0158 14.4748 30.9532 14 32.9988 14C35.0444 14 36.9775 14.4705 38.7031 15.3121V21.3071H44.7101C45.4453 22.8133 45.8993 24.4837 45.9988 26.2446H38.7031C38.396 26.2446 38.1365 26.4259 38.0155 26.6848L36.4586 29.3867L33.7297 18.8944C33.6259 18.493 33.2151 18.2513 32.8129 18.3549C32.5404 18.4239 32.3415 18.6397 32.2723 18.8944L29.5434 29.3824L27.9519 26.6201C27.8135 26.3784 27.5584 26.2446 27.2989 26.2446V26.2403H20.0031C20.0983 24.4837 20.5524 22.8133 21.2876 21.3071Z" fill="var(--fill-0, #E42313)"/>
</g>
</g>
<defs>
<filter id="filter0_d_0_595" x="0" y="0" width="66" height="66" filterUnits="userSpaceOnUse" color-interpolation-filters="sRGB">
<feFlood flood-opacity="0" result="BackgroundImageFix"/>
<feColorMatrix in="SourceAlpha" type="matrix" values="0 0 0 0 0 0 0 0 0 0 0 0 0 0 0 0 0 0 127 0" result="hardAlpha"/>
<feOffset dy="6"/>
<feGaussianBlur stdDeviation="6"/>
<feColorMatrix type="matrix" values="0 0 0 0 0 0 0 0 0 0 0 0 0 0 0 0 0 0 0.14902 0"/>
<feBlend mode="normal" in2="BackgroundImageFix" result="effect1_dropShadow_0_595"/>
<feBlend mode="normal" in="SourceGraphic" in2="effect1_dropShadow_0_595" result="shape"/>
</filter>
</defs>
</svg>
