<svg preserveAspectRatio="none" width="100%" height="100%" overflow="visible" style="display: block;" viewBox="0 0 44.625 52.3998" fill="none" xmlns="http://www.w3.org/2000/svg">
<g id="Icon container">
<path id="Subtract" fill-rule="evenodd" clip-rule="evenodd" d="M18.8424 7.01004C19.5757 4.4255 21.4526 3.97461 23.9233 4.4873C25.1883 4.74991 25.9241 5.82593 26.318 6.99512C28.9364 6.99784 31.7359 6.92569 34.3367 6.9945C34.1537 7.40742 33.4764 8.9766 33.2518 9.27118C32.5525 9.21659 31.441 9.25369 30.7173 9.25564C29.2143 9.26217 27.711 9.26123 26.2081 9.25253C26.1607 9.39763 26.1103 9.54177 26.0577 9.685C25.6177 10.8762 24.6826 11.3099 23.6114 11.8051L23.617 15.3388C26.5456 16.643 26.1962 18.3866 26.2081 21.133C26.2164 23.0828 25.5625 24.4133 23.6275 25.1538C23.5126 29.9184 23.6158 35.1168 23.612 39.9112C25.0001 40.2954 25.8067 41.0322 26.205 42.4165L34.4212 42.4066C34.4523 40.5542 34.0373 37.3596 35.188 35.9053C36.3657 34.4171 38.7696 35.0211 40.3882 34.8887C42.6843 34.7008 44.4402 35.4301 44.5961 37.9688C44.64 41.6141 44.559 45.198 44.6041 48.8495C44.6313 51.0431 43.6995 52.28 41.3656 52.3701C40.6847 52.406 39.906 52.3291 39.2387 52.3621C34.8608 52.5783 34.3979 51.3372 34.4225 47.3141V44.8374C31.7424 44.7782 28.9017 44.8245 26.2093 44.8237C25.8568 45.9313 25.1923 46.8651 24.0128 47.1345C21.6719 47.6693 19.6334 47.298 18.8897 44.8187C16.0322 44.869 13.0645 44.8191 10.1924 44.8367C10.1794 46.7119 10.5951 49.8203 9.45674 51.3635C9.07467 51.8814 7.98185 52.3989 7.32982 52.3546C4.68669 52.1753 0.220027 53.4035 0.0232119 49.4187C0.101652 45.4018 -0.119389 41.2604 0.100882 37.2605C0.177129 35.8788 1.92179 34.784 3.20273 34.8893C4.59947 35.004 6.71522 34.6829 8.02388 35.0242C8.48922 35.1426 8.91612 35.3797 9.26226 35.7127C10.4122 36.8321 10.2041 38.4751 10.1949 39.959C10.1931 40.773 10.1967 41.5871 10.2049 42.401L18.8828 42.4277C19.2879 40.9782 19.914 40.3641 21.3366 39.9392C21.2738 38.1789 21.3108 36.2347 21.3105 34.4625L21.3049 25.1482C21.2339 25.1246 21.1636 25.0991 21.0942 25.0712C20.2399 24.7235 19.5596 24.0484 19.2059 23.1965C19.1098 22.9602 18.9323 22.3582 18.9325 22.0849C18.9351 19.4452 18.2483 16.5999 21.3123 15.3935C21.3037 14.7505 21.4159 11.8584 21.2117 11.7628C20.0107 11.209 19.5159 11.0462 18.853 9.24259C16.7347 9.34574 13.8822 9.2617 11.7067 9.26434C11.308 8.4152 10.9529 7.74741 10.4298 6.97027C13.1168 6.96134 16.1845 6.91963 18.8424 7.01004ZM42.1715 37.619C41.8223 37.3002 37.597 37.4407 36.8576 37.4574C36.6442 38.7598 36.6483 48.6415 36.9141 49.6243C37.2398 49.9487 41.6333 49.8399 42.2075 49.6821C42.4825 48.8213 42.4134 38.6514 42.1715 37.619ZM7.75483 37.4574C6.14357 37.4379 4.08666 37.3756 2.51674 37.4761C2.35433 37.6852 2.33577 37.7715 2.33158 38.0521C2.27744 41.7103 2.24816 45.391 2.34338 49.0471C2.34967 49.2867 2.38485 49.5003 2.54719 49.6691C3.18805 49.8871 6.81315 49.8376 7.61564 49.7747C7.83273 49.5743 7.84749 49.2599 7.85052 48.9769C7.87374 46.7598 7.87801 44.4832 7.86543 42.2674C7.8593 41.1874 7.93487 38.4209 7.75483 37.4574ZM22.5358 42.2388C22.2077 42.2452 21.8794 42.2549 21.5516 42.268C21.1337 42.7305 21.2415 43.3668 21.2042 43.9438C21.1197 45.2529 22.3866 45.0426 23.3355 44.9505C23.762 44.5477 23.7321 44.1108 23.7506 43.5543C23.7851 42.515 23.5303 42.2237 22.5358 42.2388ZM22.3196 17.4918C21.1108 18.0513 21.2313 18.5021 21.2073 19.7927C21.1877 20.8568 20.9668 23.032 22.5625 22.9971C23.8856 22.6358 23.7322 21.5088 23.7574 20.3513C23.7831 19.1688 23.8674 17.6219 22.3196 17.4918ZM22.2537 6.56452C21.7936 6.58417 21.6995 6.66262 21.4248 7.00009C21.209 7.3637 21.1216 8.17532 21.1974 8.58768C21.3865 9.615 23.1139 9.88976 23.5872 8.981C23.8321 8.51049 23.7801 7.45395 23.5089 6.99388C23.1919 6.55622 22.7829 6.54192 22.2537 6.56452Z" fill="var(--fill-0, #7E9199)"/>
<path id="Subtract_2" fill-rule="evenodd" clip-rule="evenodd" d="M6.15864 0.00845759C6.61441 -0.0222222 7.14855 0.0370403 7.60517 0.0855066C9.73568 0.421384 10.3688 2.045 10.2161 3.99015C10.1667 4.61991 10.2439 5.2133 10.1254 5.84989L10.1105 5.92632C10.1953 6.23437 10.305 6.68864 10.4293 6.97021C10.9524 7.74738 11.3081 8.41511 11.7068 9.26428C11.8372 9.59399 11.9596 9.92696 12.0734 10.2628C13.2367 10.2828 17.5866 9.78882 18.3119 10.6064C18.4927 10.8102 18.6054 11.1921 18.5691 11.4627C18.5299 11.7559 18.3711 11.987 18.1342 12.1586C17.8632 12.3549 17.5276 12.4612 17.2003 12.5146C16.1063 12.6933 12.0018 12.7053 10.9233 12.5233C10.6303 12.4739 10.4333 12.3695 10.2137 12.1679C10.1909 12.3147 10.1838 12.7804 10.1931 12.9111C10.5454 17.8804 7.67003 17.347 3.95715 17.3445C3.27727 17.344 2.70272 17.3723 1.93462 17.1307C1.04801 16.8519 0.296703 16.1141 0.0960027 15.1654C-0.0383575 13.2355 0.0150702 11.0146 0.0146042 9.07973L0.0164683 4.88056C0.0187984 2.92003 -0.292348 0.661536 2.3851 0.124031C3.57586 -0.115021 4.94433 0.0900419 6.15864 0.00845759ZM6.58055 2.42804C5.69338 2.4021 3.24618 2.32057 2.52118 2.57841C2.09429 2.9923 2.30689 13.2367 2.39007 14.672C2.39343 14.6756 2.5147 14.8038 2.53982 14.8304C3.01719 15.0001 7.69779 15.1319 7.74995 14.659C8.0145 12.2566 7.78816 9.69737 7.87174 7.26473C7.52032 5.86717 6.50399 4.55184 6.23445 3.27061C6.31591 3.02987 6.47864 2.67224 6.58055 2.42804Z" fill="var(--fill-0, #7E9199)"/>
<path id="Vector" d="M6.58078 2.428C8.93108 1.40858 8.97885 4.47205 10.1108 5.92635C10.1956 6.23447 10.3052 6.68876 10.4296 6.97032C10.9527 7.74749 11.3081 8.41514 11.7068 9.26431C11.8372 9.59403 11.9594 9.927 12.0732 10.2628C13.2361 10.283 17.5867 9.78874 18.312 10.6065C18.4928 10.8103 18.6052 11.192 18.569 11.4626C18.5297 11.756 18.3711 11.9871 18.1341 12.1588C17.8631 12.3551 17.5277 12.461 17.2003 12.5144C16.1065 12.6932 12.002 12.7055 10.9235 12.5235C10.6304 12.474 10.4333 12.3695 10.2135 12.1677C10.1165 11.8435 9.79237 11.2685 9.65023 10.9309C9.16215 9.77135 8.33807 8.38773 7.87181 7.26492C7.52043 5.86725 6.50396 4.55182 6.23444 3.27049C6.31592 3.02971 6.47887 2.6722 6.58078 2.428Z" fill="var(--fill-0, #E52C28)"/>
<path id="Subtract_3" fill-rule="evenodd" clip-rule="evenodd" d="M34.4105 3.77065C34.2019 -0.7489 37.9976 0.0988851 41.0454 0.0194814C42.4386 -0.0168673 44.3983 0.635977 44.54 2.28373C44.6849 3.96987 44.6002 5.87823 44.6021 7.59265L44.6046 12.1951C44.6042 12.847 44.603 13.5517 44.5984 14.1828C44.5703 18.1107 40.8769 17.237 38.2257 17.3338C36.4423 17.3988 34.8251 16.9263 34.4702 14.8732C34.3926 14.3897 34.5107 12.6547 34.354 12.4057C33.5901 12.8718 29.2702 12.4593 28.1758 12.5617C25.9874 12.7667 25.9339 10.2318 27.7041 10.1657C29.2599 10.1079 31.255 10.1824 32.8322 10.3204C32.9766 10.0082 33.1238 9.59771 33.2517 9.27095C33.4763 8.97635 34.1537 7.40702 34.3366 6.99428L34.5354 6.30954C34.3768 5.44406 34.4495 4.61376 34.4105 3.77065ZM42.1328 2.56645C41.5172 2.31885 39.002 2.41459 38.1896 2.42043C38.4398 2.81453 38.6114 3.1294 38.4711 3.60288C38.0147 5.14375 37.1416 6.30974 36.6847 7.91265C37.0092 9.00199 36.4623 13.8637 36.9308 14.816C37.4569 15.0394 41.8263 15.066 42.2254 14.7029C42.3419 14.2649 42.3684 11.9882 42.3366 11.5743C42.2519 10.468 42.5315 2.9935 42.1328 2.56645Z" fill="var(--fill-0, #7E9199)"/>
<path id="Vector_2" d="M34.5353 6.30949C34.9875 5.66156 35.2405 4.94 35.592 4.23887C36.1915 3.04337 36.5903 1.5942 38.1895 2.42061C38.4397 2.81471 38.6117 3.12935 38.4714 3.60283C38.015 5.14381 37.1419 6.30987 36.685 7.91291C35.9701 9.0149 35.4765 10.4745 34.814 11.6289C34.7391 11.7595 34.3836 12.3293 34.3538 12.4058C33.5899 12.8719 29.2694 12.4593 28.1754 12.5618C25.987 12.7668 25.9339 10.2315 27.7043 10.1656C29.2601 10.1077 31.2552 10.1822 32.8325 10.3203C32.9769 10.0081 33.1241 9.59782 33.2519 9.27106C33.4765 8.97645 34.1538 7.40712 34.3367 6.99438L34.5353 6.30949Z" fill="var(--fill-0, #E52C28)"/>
</g>
</svg>
