<svg preserveAspectRatio="none" width="100%" height="100%" overflow="visible" style="display: block;" viewBox="0 0 61.1633 51.9503" fill="none" xmlns="http://www.w3.org/2000/svg">
<g id="Icon container">
<path id="Vector" d="M32.586 0.0185919C35.3492 -0.205848 39.7983 1.66013 42.4909 2.61659C43.5463 2.99154 44.6463 3.36203 45.7121 3.715L58.9611 8.0524L58.975 10.9636C59.6851 11.0347 60.3306 11.0929 61.0463 11.1292C61.0942 12.5825 61.2792 13.7094 61.0539 15.1773C60.1094 16.1747 59.2157 16.7837 58.2722 17.9035C58.3154 19.9599 58.2925 22.3816 58.253 24.4358C57.5275 24.7403 56.4985 25.7586 55.8254 26.2569C55.2724 26.6663 54.79 26.9463 54.2 27.2943C53.9123 26.7014 53.6376 25.9347 53.3731 25.3098C52.7926 23.9159 52.227 22.5062 51.7885 21.0607C51.4059 19.7997 51.2716 18.4226 50.6895 17.2337C50.2251 16.2854 49.7287 15.5163 48.7159 15.1075C46.951 14.3951 44.6349 15.2489 43.5906 16.7919C42.6031 18.2509 42.3323 19.7648 41.7838 21.3964C40.6047 24.4626 39.6301 27.5717 38.5109 30.657C37.9798 32.121 36.8018 33.3131 36.179 34.7316C35.3786 36.7123 35.4075 39.637 36.1874 41.6258C36.8106 43.1035 38.0557 44.5568 39.5983 45.1869C42.3849 46.3251 45.1656 44.91 46.8141 42.5923C47.3354 41.8273 47.679 40.2974 48.4248 39.7227C49.4843 38.9064 51.2719 38.1859 52.5048 37.6706L52.49 44.09C51.924 44.798 49.4599 46.8408 48.6714 47.5124C47.6357 48.3472 46.5476 49.5437 45.4329 50.1973C43.4185 51.3783 36.7838 51.7484 34.2648 51.8519C34.2852 49.5651 34.29 47.2782 34.2796 44.9914C34.2856 43.1837 34.494 40.6293 33.8074 38.9687C32.3809 38.0681 31.5419 38.1213 30.467 36.8236C30.3014 35.1685 30.4304 33.8017 30.4343 32.1707C30.4286 30.9665 30.3499 29.7638 30.1987 28.5691C29.7938 28.1764 28.8565 26.9495 28.6084 26.4561C27.8536 24.7807 29.0366 23.091 29.8853 21.7326C30.64 20.5236 30.98 19.7231 32.2092 18.9771C34.7169 17.4552 40.3756 16.5961 41.345 13.5593C41.0741 12.5982 40.752 12.0953 39.8411 11.6445C36.4741 9.97805 32.9138 8.7582 29.4492 7.32601L21.9948 4.25166C21.0053 3.85466 19.4789 3.14865 18.4895 2.98055C20.284 2.55636 22.316 1.55858 24.2461 1.43618C25.8393 1.34889 27.2734 2.21424 28.7262 2.72836C30.7445 3.4039 32.6415 4.14448 34.6326 4.91364C36.6881 5.70763 38.9775 6.63899 41.1728 6.93833C41.4791 6.98013 41.9371 6.99001 42.1838 6.78567C42.6952 5.96393 41.8043 5.31766 41.1397 4.97798C39.5889 4.18551 37.8332 3.77642 36.188 3.18802C34.6128 2.62466 33.0429 2.06297 31.4752 1.47784C30.9318 1.27482 29.7252 0.941321 29.3164 0.679741C29.1974 0.496683 29.2105 0.574858 29.2484 0.387002C29.7305 0.22627 31.9961 0.0685989 32.586 0.0185919Z" fill="var(--fill-0, #7D9199)"/>
<path id="Vector_2" d="M3.00109 7.93731C3.269 8.00192 3.99546 8.31893 4.31824 8.42875C5.94851 8.98335 7.50756 9.67635 9.10632 10.3091C14.882 12.6428 20.6273 15.0507 26.3411 17.532C27.3288 17.9692 28.2504 18.4742 29.2199 18.9046C28.8573 19.5735 28.4713 20.2296 28.0626 20.8714C26.1049 23.8827 26.2374 23.4783 26.3026 27.1104C24.8473 26.8067 22.7863 25.91 21.3728 25.3427L14.0848 22.3674C10.5152 20.8812 6.91332 19.3844 3.37854 17.8201C2.29084 17.3388 1.12433 16.8902 0.0911558 16.3247C0.0327332 15.4071 -0.0439813 14.6099 0.0313422 13.691C0.167662 12.028 1.24869 11.0217 2.09769 9.67601C2.46131 9.09964 2.71405 8.55534 3.00109 7.93731Z" fill="var(--fill-0, #E52C27)"/>
<path id="Vector_3" d="M5.99979 35.9226C6.92892 36.577 8.11775 37.5121 9.2588 37.6634C10.1447 37.781 10.5304 37.4372 11.1633 36.9502C11.56 38.0581 13.2856 39.5209 14.4277 39.876C15.0539 40.0706 16.0749 39.9895 16.7219 39.8303C16.763 39.7917 17.0077 39.5464 17.0712 39.6054C18.6143 41.0405 20.2415 43.6082 22.7053 42.2712C22.739 42.2529 23.042 42.1295 23.1045 42.0985C23.5233 42.4387 23.883 42.9116 24.2548 43.3315C25.2763 44.4849 27.5595 45.6085 29.0513 44.6454C29.1537 44.4919 29.2582 44.1694 29.2521 43.9895C29.2124 42.8214 27.5033 42.8835 26.6897 42.5979C26.3025 42.4613 25.9514 42.2382 25.6632 41.9455C24.5588 40.8305 24.745 39.0475 24.7582 37.5533C25.4364 37.7016 26.5755 38.1898 27.2498 38.4576L30.7706 39.8413L32.1171 40.3789C32.1115 41.87 32.2954 43.589 32.3138 45.1247C32.3416 47.4394 32.2586 49.6397 32.124 51.9503C27.9379 50.1709 23.6607 48.4888 19.4334 46.806C14.9895 45.0368 10.4475 43.0718 5.97698 41.4004C5.85533 39.2369 5.83273 38.0957 5.99979 35.9226Z" fill="var(--fill-0, #7D9199)"/>
<path id="Vector_4" d="M12.6418 3.13324C12.9004 3.118 13.1928 3.11543 13.4344 3.21058C14.8318 3.76079 16.2431 4.32888 17.6263 4.90608L23.525 7.30934C27.3014 8.80482 31.0653 10.3319 34.8161 11.8904C36.1821 12.4566 37.382 12.8888 38.7547 13.5058C37.2287 14.5125 33.1865 16.2979 31.4546 16.9265C30.6476 17.1335 30.5173 17.0577 29.7699 16.7224C29.1354 16.4378 28.4802 16.1423 27.8386 15.8733L20.8893 12.9362L11.3648 8.91631C9.51943 8.14791 6.99794 7.20341 5.25625 6.32019C6.87379 5.36936 10.889 3.56633 12.6418 3.13324Z" fill="var(--fill-0, #E52C27)"/>
<path id="Vector_5" d="M1.94627 19.6279L21.271 27.5491C22.6339 28.114 24 28.6713 25.3691 29.221C26.1855 29.5443 27.4998 30.0081 28.2264 30.4359C28.2342 32.3949 28.2107 34.3539 28.1559 36.3122C26.9855 35.9737 25.8657 35.4871 24.8063 35.1846C24.7423 33.902 24.9515 32.3188 24.3718 31.2645C24.107 31.2261 23.725 31.225 23.4488 31.2158C22.794 31.653 22.6462 31.6428 22.6537 32.4824L22.5965 34.2124C22.0347 34.0863 19.5088 33.0272 18.8506 32.7613C18.4509 32.1312 19.1234 29.672 18.3668 28.9255C17.7965 28.3629 16.778 28.9831 16.6992 29.6006C16.619 30.2277 16.6666 31.0342 16.6714 31.6605C15.609 31.349 13.5101 30.449 12.7022 30.347C12.6933 28.8943 13.0831 27.8218 12.3557 26.4668C10.154 25.7933 10.5425 27.8321 10.5416 29.3465C9.29764 28.7842 7.96324 28.3351 6.68462 27.8343C6.65812 26.6771 6.71286 25.0793 6.59935 23.9986C5.87596 23.875 5.61723 23.8129 4.89188 23.9443C4.50518 24.9519 4.50518 25.7499 4.42714 26.8141C3.94078 26.5628 2.65158 26.1351 2.0056 25.8531C2.00928 23.7757 1.92408 21.7391 1.94627 19.6279Z" fill="var(--fill-0, #7D9199)"/>
<path id="Vector_6" d="M50.1818 23.2924C50.783 23.8018 52.637 28.7257 52.5454 29.5475C52.2741 31.9838 50.5502 32.6527 51.4022 35.6814C50.4277 36.3301 49.5626 36.8589 48.4222 37.1377C48.2845 35.4598 47.8731 33.8823 47.0213 32.4315C46.7549 31.969 46.0964 31.3421 45.6661 31.0354C44.1877 29.9809 43.0578 29.5545 41.262 29.8173C41.45 28.7134 42.5576 24.8776 43.0993 24.0428C43.2115 24.0122 43.3447 23.9727 43.4527 24.0555C46.3787 26.301 47.7762 25.4978 50.1818 23.2924Z" fill="var(--fill-0, #7D9199)"/>
<path id="Vector_7" d="M41.8296 31.9934C46.5243 31.4438 47.083 38.2634 45.2859 41.156C44.4284 42.5362 43.6862 42.994 42.1666 43.4344C41.2472 43.5044 40.4132 43.2702 39.6419 42.7725C37.7806 41.559 37.5209 39.1885 37.8003 37.1668C38.1347 34.7472 39.2746 32.5313 41.8296 31.9934Z" fill="var(--fill-0, #7D9199)"/>
<path id="Vector_8" d="M46.7511 17.0401C50.3273 16.8478 49.8591 22.0275 46.8361 23.2684C43.2757 23.4634 43.8159 18.0528 46.7511 17.0401Z" fill="var(--fill-0, #7D9199)"/>
<path id="Vector_9" d="M12.7527 32.5925C13.171 32.8535 16.0941 33.9032 16.675 34.0939C16.6839 35.4172 16.6814 36.7404 16.6675 38.0636C16.5878 38.0608 16.5081 38.0556 16.4286 38.0481C12.919 37.7101 12.3959 35.6209 12.7527 32.5925Z" fill="var(--fill-0, #7D9199)"/>
<path id="Vector_10" d="M18.7772 35.1514C19.9171 35.3883 21.273 36.2111 22.6376 36.4058C22.569 37.6887 22.6504 39.207 22.6439 40.5334C19.0793 40.6279 18.5176 38.1283 18.7772 35.1514Z" fill="var(--fill-0, #7D9199)"/>
<path id="Vector_11" d="M6.75264 30.2426C7.726 30.4948 9.45809 31.2373 10.5635 31.6102C10.6219 32.7939 10.6887 34.465 10.4645 35.6142C10.4065 35.6129 10.3486 35.6092 10.2909 35.6033C6.95552 35.2314 6.39501 33.1816 6.75264 30.2426Z" fill="var(--fill-0, #7D9199)"/>
</g>
</svg>
